<svg width="24" height="24" viewBox="0 0 24 24" fill="none" xmlns="http://www.w3.org/2000/svg">
<g clip-path="url(#clip0_8_252)">
<rect width="24" height="24" rx="12" fill="#FF5B14"/>
<path d="M15.4498 6H10.7215C10.1629 6 9.67487 6.37766 9.53474 6.91844L7.79801 13.621C7.64715 14.2032 8.08665 14.7711 8.68808 14.7711H11.2361C11.3379 14.7711 11.4114 14.8686 11.3834 14.9666L10.3963 18.4104C10.3523 18.5638 10.5428 18.6738 10.6537 18.5592L16.4947 12.5211C16.871 12.1321 16.5954 11.4819 16.0542 11.4819H13.9595C13.8457 11.4819 13.7716 11.3623 13.8223 11.2604L15.9986 6.88601C16.2013 6.47851 15.9049 6 15.4498 6Z" fill="#FF5B14"/>
<path d="M16.3818 22.5547H15.6768V23.2779H16.3818V22.5547Z" fill="#250034"/>
<path d="M20.8409 21.4671L20.8334 21.0829H21.1424V20.8566H21.444V20.6228V20.4723H20.7053V20.3591H19.7937V20.1782H19.1986V19.9599H19.3342V19.7491H19.6282V19.3499H19.862V18.9731H20.1033V18.5285H20.3296V18.1591H20.6156V17.6393H20.8942V17.0816H21.128V16.479H21.3089V15.8385H21.5875V15.1378H21.8288V14.4146H22.1378V13.9727H27.6282V14.279H27.3768V14.5251H27.1105V14.7764H26.9194C26.9194 14.7764 26.9194 15.1228 26.9194 15.158C26.9194 15.1933 26.7534 15.158 26.7534 15.158V15.6304H26.5725V16.0221H26.2864V16.2933H25.9699V16.8409H25.5531V17.2177H25.3172V17.6398H24.9457C24.9457 17.6852 24.9457 18.0871 24.9457 18.0871L24.6393 18.0919L24.6441 18.3481H25.6689V18.5488H26.533H27.2364V18.7697H28.0002V19.1316V19.7806H26.8014V20.4573H25.7687V21.1608H24.8043V21.6833H23.9001V22.4065H22.8754V22.9893H22.0113V23.4515H21.0469V23.7328H20.1225V24.014H19.1378V24.3556H17.5302V24.0541H16.7061V23.6122H14.9731L14.9272 21.4623L16.2359 21.4474L17.1022 22.5682H17.97V22.9066H18.4295V22.6728H19.0022V22.3713H19.4617L19.4692 22.0724L19.8385 22.0772L20.218 22.0745L20.2228 21.4666" fill="#250034"/>
<path d="M5.6993 6.59668H5.28566V6.26577H4.8779V5.55059H4.21609V5.18979H3.82007V4.7404H3.47155V4.37374H2.77985V4.03696H2.16501V3.65856H1.46744V3.31003H0.864334V2.9375H-0.430469V3.43386H-0.891602V7.65451H-0.501453V8.36382H-0.253274V9.19803H0.101649V9.71253H0.314604C0.314604 9.71253 0.693011 10.9422 2.92769 12.1009" fill="#FF8E00"/>
<path d="M5.6993 6.59668H5.28566V6.26577H4.8779V5.55059H4.21609V5.18979H3.82007V4.7404H3.47155V4.37374H2.77985V4.03696H2.16501V3.65856H1.46744V3.31003H0.864334V2.9375H-0.430469V3.43386H-0.891602V7.65451H-0.501453V8.36382H-0.253274V9.19803H0.101649V9.71253H0.314604C0.314604 9.71253 0.693011 10.9422 2.92769 12.1009" stroke="#241F20" stroke-width="0.320232" stroke-miterlimit="10"/>
<path d="M15.9744 18.3984V19.1344H16.2402V19.507H16.6837V20.1277H17.0205V20.9432H17.4459V21.5992H17.8537V22.6452H17.4459V23.053H17.0381V23.266H16.2578V22.8048H15.9029V22.3437H15.5661V21.6696H14.892V22.0598H15.3174V26.298H14.8387V26.5286H14.4485V26.6519H14.0231V26.6529H13.5796V26.2276H13.2247V25.9084H12.8346V25.1991H12.4444V24.7203H10.6356V25.3411H10.0683V26.1747H9.66053V26.599L9.27038 26.6006H8.96883H8.57868V26.1753H8.29474V25.1292H7.85122V23.2494L7.51444 23.2318H6.76937V22.9126C6.76937 22.9126 6.46782 22.9302 6.48543 22.9126C6.50305 22.895 6.48543 22.5049 6.48543 22.5049H6.06006V21.6184H6.43259V21.2106V20.4479H6.92895V19.6676H7.24812V19.1713H7.78023V18.4" fill="#250034"/>
<path d="M3.02858 11.9298V9.4587H4.19903V8.80863V8.09932H3.35949V7.47273H2.83911V6.88137H2.26003V6.2313H1.96435V5.74668H1.397V5.07846H0.39201V4.68245H0.120347V4.36328H-0.730936L-0.742676 7.55546L-0.351995 7.58001L-0.343989 8.20019L-0.112354 8.22474L-0.0958083 9.02692L0.235097 9.06802L0.243102 9.54783L0.417095 9.55584C0.582548 10.0687 0.963091 10.4738 1.33509 10.8378L1.87255 11.2846C2.20079 11.5754 2.62456 11.7612 3.02858 11.9298Z" fill="#FF2835"/>
<path d="M2.9079 10.4682H3.57985V9.6046H4.06874V8.88514H3.41493V8.40586H3.10324V7.61436H2.57166V7.12867H2.11319V6.80471H1.74653V6.42737H1.45351V5.79758H0.958222V5.5099H0.628384V5.07812H0.261719V7.52416H0.481611V8.54944H0.885103V9.28703H1.10499V9.62862H1.41669V10.0604H1.8933V10.5461H2.25996V10.7436H2.49854V11.1081H2.91537L2.9079 10.4682Z" fill="#190134"/>
<path d="M18.9972 8.01957L18.9796 7.66465H19.2811L19.2988 7.3631H19.6355V6.91958H19.9905V6.60041H20.221V6.26364H20.6112V5.96208H21.0013V5.55432H21.764C21.764 5.55432 23.094 3.90513 25.4349 3.74555L25.4702 3.39062H27.066V6.79575H26.6934V8.09056H26.2499V9.08381C26.2499 9.08381 25.2567 10.6268 23.2883 11.3895V11.762H22.6681V12.134H20.5578V14.5043H20.1559V15.308H19.872V16.2538H19.0207V16.8452H18.6898V17.1761H18.0515V17.6255H17.419V18.0124H16.4877V18.4025H15.9822H7.78911V18.0033H6.53594V17.5539H5.66117V17.152H5.2358V16.7267H4.47898V16.2655H3.74618V15.7217H3.39126V14.8469H2.95361V10.3898H3.60368V9.53854H4.07656C4.07656 9.53854 4.02906 8.78172 4.07656 8.82922C4.12406 8.87672 4.40746 8.82922 4.40746 8.82922V7.97794H4.92784V7.29211H5.73162V6.39333H6.6304V5.82599H7.19775H17.6256V6.34636H18.0749V6.84272H18.8077V8.00143L18.9972 8.01957Z" fill="#FF8E00" stroke="#241F20" stroke-width="0.320232" stroke-miterlimit="10"/>
<path d="M23.3969 11.1713C24.4088 10.7678 25.3279 9.96132 26.0121 9.31338L26.2427 9.08281V8.08956H26.6862V6.79476H27.0053V4.34766H26.58V4.7378H26.1364V5.05697H24.8064V5.57147H24.0613V6.97249H23.2634H22.3059V7.96574H21.508V9.22478H20.5858H20.2308V9.96985H19.6987V11.4419H19.291V12.4527H18.936V14.0485V14.6869H19.7873V14.5097H20.4614L20.3979 11.9788L22.5093 11.9734V11.5998L23.1316 11.6014V11.2743L23.3969 11.1713Z" fill="#FF2835"/>
<path d="M20.5497 10.9995H22.3761V10.5741H23.316V10.3259H23.7061V10.0244H24.1497V9.66946H24.4688V9.2617H24.8056V9.56325H25.0719V9.2617H25.2134V8.57H25.5683V7.48815H25.9584V5.02344H25.2134V5.76798H24.3802V6.15813H23.9015V6.51305H23.1388V7.098H22.6243V7.57728H21.8264V8.30421H21.4186V8.88917H21.0995V9.31507H20.585V9.72284H20.2658L20.2524 10.9995H20.5497Z" fill="#190134"/>
<path d="M7.21338 3.99471V7.62453H7.58004V8.08566H7.94671V8.42831H8.26V8.83607H8.59678V9.33243H8.98693V9.68736H9.28848V10.0423H9.62526V10.6806H10.2812V10.2371H10.8309V9.51016H11.2744V8.90706H11.9662V8.35733H13.3848V7.89619H14.1298V7.29309H14.9454V6.83196H15.4417V6.54802H16.6298V5.78533V5.12939H17.0552V4.38485H17.8355V3.00145H16.9842V-0.58087C16.9842 -0.58087 16.3987 -0.492272 16.3987 -0.58087C16.3987 -0.669467 16.3987 -1.80469 16.3987 -1.80469H16.0262V-0.847195H15.6712V-0.155495H15.2277V0.323251H14.4826V0.801997H13.8619V1.06779H13.0464V1.36934H12.2837V1.72426H11.3791V2.11441H10.4034V2.59316H9.94229V2.98331H9.60551V3.58641H9.25059V0.943967H9.03763V1.58229H8.77184V1.95483H8.32832V2.59316H7.95578V3.28486H7.60086V3.92319L7.21338 3.99471Z" fill="#190134"/>
<path d="M14.583 10.0547H16.0374V10.4448H16.4803V11.0479H17.0301V11.4557H17.385V12.9635H17.0482V13.708H16.6933V14.0981H16.3384V14.4707H14.2281V14.2225H13.8737V13.6904H13.4478V11.4557H13.8203V11.0127H14.2638V10.5158H14.5472L14.583 10.0547Z" fill="#250034"/>
<path d="M15.7711 10.6836H15.0266V11.0028H14.5654V11.7126H15.1328V12.209H16.0193V11.6945H16.2498V11.0385H15.7711V10.6836Z" fill="white"/>
<path d="M16.1787 13.7479V14.1909H14.4585V13.7655H14.0684V12.6484H14.4233V13.5173H16.1077V13.1624H16.4979V13.6945L16.1787 13.7479Z" fill="white"/>
<path d="M7.56863 10.0547H6.11424V10.4448H5.67126V11.0479H5.12153V11.4557H4.7666V12.9635H5.10338V13.708H5.4583V14.0981H5.81269V14.4707H7.92355V14.2225H8.27794V13.6904H8.70385V11.4557H8.33131V11.0127H7.88779V10.5158H7.60385L7.56863 10.0547Z" fill="#1F0131"/>
<path d="M6.3806 10.6836H7.12514V11.0028H7.58627V11.7126H7.01893V12.209H6.13242V11.6945H5.90186V11.0385H6.3806V10.6836Z" fill="white"/>
<path d="M5.97253 13.7479V14.1909H7.69271V13.7655H8.08286V12.6484H7.72793V13.5173H6.04298V13.1624H5.65283V13.6945L5.97253 13.7479Z" fill="white"/>
<path d="M9.56836 15.7473L9.66176 16.2895L9.97612 16.2351L10.0001 16.3749L10.2451 16.3328L10.299 16.6477L13.1304 16.1609L13.0856 15.8989L13.7495 15.7846L13.6236 15.0508L12.9943 15.1586L13.0514 15.4911L12.6666 15.5567L12.712 15.8193L12.2225 15.9031L12.1713 15.6058L11.1402 15.783L11.185 16.0456L10.6433 16.1385L10.5984 15.8764L10.0914 15.9634L10.0396 15.6619L9.56836 15.7473Z" fill="#241F20" stroke="#241F20" stroke-width="0.0400289" stroke-miterlimit="10"/>
<path d="M17.0492 13.3181L18.5233 13.293V13.5812H18.8852V14.014H19.3079V15.4743H18.9258V15.8527H18.4833V16.2311H16.9142V15.8527H16.5523V15.3659H16.1702C16.1702 15.3659 16.2107 14.4757 16.1707 14.4757C16.1307 14.4757 16.3356 14.473 16.3356 14.473L16.3388 14.1032L16.6831 14.1016L16.6938 13.713H17.0487L17.0492 13.3181Z" fill="#EFF6D0"/>
<path d="M5.68261 6.59766L5.7237 7.3011H4.91992" fill="#FF8B00"/>
<path d="M5.68261 6.59766L5.7237 7.3011H4.91992" stroke="#241F20" stroke-width="0.106744" stroke-miterlimit="10"/>
<path d="M16.7192 -0.511453V2.58625H16.3408V3.22458H16.0334V3.72094H15.608V4.33578H15.9864V4.02836H16.3173V3.76844H17.2866V4.17033H16.7902V4.97411H16.1994V6.17979H15.4191H15.0642V6.51069H14.6148V7.00705H14.0005H13.693V7.52743C13.693 7.52743 13.043 7.4922 13.0782 7.52743C13.1134 7.56265 13.0782 7.97682 13.0782 7.97682H12.014V8.13053H11.5886V8.45023H11.2812V8.75765H10.9145V9.36075H10.5953V9.92809H9.7558V9.56143H9.41315V9.24226H9.03474V8.75765H8.67982V8.02485H8.31316V7.65819H7.92301V6.94887H7.66309V4.3598H7.92301V3.49678H8.40762V2.71648H8.69156V2.37383H9.07584V3.88693H9.66133V3.30144H10.14V2.9289H10.5126V2.59212H11.4525V2.11338H12.3214V1.72323H13.0131V1.47505H13.811V1.06729H14.4141V0.801495H15.2296V0.198393H15.7084V-0.15653H16.0633V-1.00781H16.3472V-0.582438L16.7192 -0.511453Z" fill="#FAF5DA"/>
<path d="M8.59709 6.26358V6.97289H8.95202V6.51176H9.28879V6.17498H9.66133V5.73146H10.1225V5.42991H10.5302V4.84442H10.9914V4.43666H11.5235V3.97552H12.6229V4.77397H13.4742V4.52525H13.811V3.74496H13.0131V3.35481H13.3499V2.59266H14.5379V2.22012H14.8752V1.42221H15.6731V0.375588V-0.15653H16.0633V-1.00781H16.3472V-0.581904H16.7192V2.58625H16.3413V3.22511H16.0339V3.72147H15.608V4.33632H15.9864V4.0289H16.3173V3.76897H17.2871V4.17087H16.7902V4.97465H16.1994V6.18085H15.0642V6.51176H14.6148V7.00812H13.693V7.52849H13.0782V7.97788H12.014V8.13159H11.5886V8.45076H11.2812V8.75818H10.9145V9.36075H10.5953V9.92863H9.7558V9.56196H9.41315V9.2428H9.03474V8.75818H8.67982V8.02485H8.31369V7.65872H7.92354V6.94887H7.66309V4.3598H8.2427V4.09988H8.96963V4.41904H8.63285V5.55426H8.98724V5.19934H9.32455V4.86257H9.64372L9.66133 6.17498H8.59709V6.26358Z" fill="#FF8B00"/>
<path d="M4.95635 14.8672H4.64893V15.1746H4.95635V14.8672Z" fill="#FF8B00"/>
<path d="M18.221 14.6953H17.9136V15.0027H18.221V14.6953Z" fill="#FF8B00"/>
<path d="M15.6813 19.1956H15.9284V19.5334H16.3404V20.097H16.6537V20.8378H17.0492V21.4334H17.4281V22.3835H17.0492V22.7539H16.6703V22.9471H15.9449V22.5286H15.6151V22.1102H15.3018V21.4986H14.6758V21.8529H15.0712V25.7011H14.6261V25.9588H14.2637V25.9877H13.8682V26.0234H13.4562V25.637H13.1264V25.3472H12.764V24.703H12.4016V24.2686H10.7204V24.8322H10.193V25.589H9.8141V25.9914H9.45171V25.9722H9.1715V25.9754H8.80911V25.589H8.54545V24.639H8.13342V22.9321L7.82013 22.9161H7.12789V22.6263C7.12789 22.6263 6.84769 22.6423 6.86424 22.6263C6.88078 22.6103 6.86424 22.2559 6.86424 22.2559H6.46875V21.4511H6.8146V21.0807V20.3884H7.27627V19.6786H7.57302V19.2276H8.06724V18.5273" fill="#FF8E00"/>
<path d="M7.42676 19.7623H8.66819V20.1119H8.8694V19.7725H14.095V19.4128H15.8563V19.2793H15.6818L15.6791 18.5391H8.06509V19.4539H7.57193V19.67H7.42676V19.7623Z" fill="#FF2835"/>
<path d="M4.61914 16.2448H6.06285V16.5816H6.8186V16.9722H7.6496V17.2733H10.0295V17.7344H13.9011V17.238H15.9409V16.8831H16.734V16.5287H17.2251V16.1914H18.8614V16.6856H18.5316L18.5284 17.016H17.8911L17.8922 17.467L17.2603 17.4638L17.263 17.8587L16.3658 17.8513L16.3562 18.2398L7.95168 18.2601V17.8587H6.61685V17.4078L5.8024 17.4094V17.0091L5.37435 17.008V16.5826L4.61914 16.5816V16.2448Z" fill="#FF2835"/>
<path d="M5.45838 13.5938L4.21856 13.5943V13.8782H3.89939V14.3036H3.52686V15.7398H3.86363V16.1124H4.25378V16.3339H5.63718V16.1124H5.95634V15.6336H6.29312C6.29312 15.6336 6.2579 14.7823 6.29312 14.7823C6.32835 14.7823 6.11593 14.7823 6.11593 14.7823V14.4632L5.81651 14.4605V14.097L5.45945 14.0944L5.45838 13.5938Z" fill="#EFF6D0"/>
<path d="M9.52657 18.5273V20.0879H8.88818V22.6946H9.22496V23.0314H9.56227V23.2977H9.89905V24.0604H12.9669V23.7765H13.286V23.4039H13.5876V22.9962H13.9959H14.2969V21.0278V20.017H13.5524V18.5273H9.52657Z" fill="white"/>
<path d="M13.5494 18.5273H9.52246V19.5233H13.5494V18.5273Z" fill="#D79ED5"/>
<path d="M9.7915 9.58188V8.49416H10.4181V8.11575H10.7725V7.80833H11.0265V7.48917H11.5944V7.22337H12.3389V6.90421H13.1192V6.56743H13.4032V6.21251H13.9529V5.87573H14.3431V5.55657H15.1767H15.9512V4.80563H16.5185V4.23828H17.0917V5.14827H16.2052L16.1993 6.18315H15.0641V6.51406H14.6147V7.01042H13.693L13.7282 7.2175V7.54841H13.1134V7.9978H12.0497V8.15151H11.6238V8.47067H11.3163V8.7781H10.9497V9.3812H10.6305V9.94854H9.7915V9.58188Z" fill="#FF2835"/>
<path d="M16.7187 -0.582031H16.3461V2.58666H16.0094V3.22499H15.584V3.72135H16.0334L16.0099 3.22499H16.3408L16.3467 2.58666H16.7192C16.7187 2.58613 16.6717 -0.582031 16.7187 -0.582031Z" fill="#FF2835"/>
<path d="M9.56934 23.3008H13.577V23.4385H13.2888V23.8105H12.9697V24.0944H9.90184V23.3317L9.57147 23.3296L9.56934 23.3008Z" fill="#D79ED5"/>
<path d="M8.1333 24.6305H8.67983V24.0535H9.3299V23.7344H9.86202V23.9767H10.7133V24.8237H10.1935V25.5805H9.81452V25.9829H9.45212V26.0171H9.17192V25.9669H8.80952V25.5805H8.54586L8.53999 24.7837C8.53999 24.7837 8.13971 24.7661 8.13971 24.7837C8.13971 24.8013 8.1333 24.6305 8.1333 24.6305Z" fill="#FF2835"/>
<path d="M14.2642 26.0089H14.6266V25.6983H15.0717V21.6367H14.6762V25.3829H14.3779V25.6903H14.1297V25.9502H13.6568V25.5014H13.2902V25.1699H12.8354V25.7378H13.3494V26.0202H13.8687L14.2642 26.0089Z" fill="#FF2835"/>
<path d="M8.13365 22.9286V20.7985H7.95859V20.4169H8.15393V18.3242H7.85238V20.2456H7.72803V20.9373H7.92924V22.9414L8.13365 22.9286Z" fill="#250034"/>
<path d="M4.86016 14.8359H4.55273V15.1434H4.86016V14.8359Z" fill="#FF8B00"/>
<path d="M17.1499 23.4229V23.8739H19.8403V23.3909H20.6057V23.1678H21.3241V22.9447H22.0735V22.578H22.7449V22.1153H23.5412V21.541H24.2441V20.9673H24.9934V20.3562H26.1569V19.6282H26.727V19.5156V19.0694H26.1335V18.8938H25.5869H24.915V18.8932H24.1187L24.1149 18.6371L24.353 18.6333C24.353 18.6333 24.353 18.3142 24.353 18.2784H24.535V17.9966H24.8253V17.4858H25.1493V16.9985H25.5021V16.2535H26.1516V15.6776H26.3453V15.1967C26.3453 15.1967 26.5273 15.2245 26.5273 15.1967C26.5273 15.1689 26.5273 14.8935 26.5273 14.8935H26.6223V14.6939H26.8294V14.4986H27.1315V14.3086H22.2773V14.9245H22.0372V15.6045H21.7965V16.3196H21.5264V17.4106H21.386V17.8888H21.2046V18.3312H20.9878V18.7438H20.7653V19.0368H20.5897V19.3896H20.4024V19.6885H20.2209V19.8465H19.9925V19.9078H19.8873V20.0285H20.3501V20.172H21.0589V20.2617H21.6326V20.6993V21.0964H21.3983V21.2758H21.1581L21.164 21.5805H20.7205V21.8543H20.3511V22.3843H19.5885V23.1737H19.0569H17.1712L17.1499 23.4229Z" fill="#FF8E00"/>
<path d="M21.1152 19.7037V19.518H21.4285V19.2992H21.5321V19.1172H21.6634V18.861H21.7915V18.5861H21.8987V18.2888H21.9815V17.7706H22.1096V17.4253H22.22V16.9876H22.3615V16.3242H25.163V16.7181H24.9666V17.0015H24.7232V17.1659H24.5951C24.5951 17.1659 24.5951 17.5795 24.5951 17.5971C24.5951 17.6148 24.2759 17.5971 24.2759 17.5971V17.7487H24.2738V17.9419H24.2642V18.1159H24.119V18.3454H23.9279V18.5717H23.8196V18.6987H23.6493C23.6493 18.7212 23.6493 19.0809 23.6493 19.0809L23.509 19.0835L23.5111 19.3718H23.6568V19.471H24.3768H24.6992V19.5799H25.0493V19.5959V19.8633H24.5241V20.2497H24.0267V20.5961H23.5842V20.8534H23.1695V21.5744H22.5782V21.8616H22.3033V22.0083H21.8608V22.2282H21.4371V22.4076H20.9855V23.1873H20.2485V23.214H19.8706V23.1777H19.5552L19.5584 22.8329L19.679 22.8255H20.0515H20.7331V21.9421H21.0459V21.584H21.4456V21.4356H21.6602L21.6634 21.2883H21.9761L21.9681 20.99L21.9649 20.8005H22.0151V20.689H22.1533V20.3309V20.0944H21.7039V19.9578H21.1238V19.7875" fill="#FAFBD4"/>
<path d="M17.1172 14.1079H15.6996C13.7329 14.1079 12.1387 12.5136 12.1387 10.5469H17.1177V14.1079H17.1172Z" fill="white"/>
<path d="M8.51369 14.0532H7.09613C5.12938 14.0532 3.53516 12.4589 3.53516 10.4922H8.51369V14.0532Z" fill="white"/>
<path d="M11.2661 10.044C14.1546 10.044 17.0437 10.044 19.9321 10.044C20.0618 10.044 20.1921 10.051 20.3218 10.0483C20.3933 10.0467 20.4146 10.0734 20.4141 10.1422C20.4109 10.6429 20.4088 11.1435 20.412 11.6436C20.4125 11.7413 20.3799 11.7615 20.2887 11.7583C20.0741 11.7514 19.8585 11.7599 19.6439 11.7541C19.5655 11.7519 19.5441 11.7786 19.5457 11.8528C19.5495 12.0716 19.5441 12.291 19.55 12.5098C19.5521 12.5904 19.5319 12.6182 19.4459 12.616C19.2314 12.6096 19.0157 12.6192 18.8012 12.6118C18.6912 12.608 18.6416 12.6256 18.6512 12.7548C18.6656 12.9416 18.6518 13.13 18.6544 13.3173C18.6555 13.3985 18.6251 13.4246 18.5434 13.4225C18.3283 13.4171 18.1132 13.4225 17.8987 13.4193C17.8245 13.4182 17.7978 13.4422 17.7994 13.5191C17.8037 13.747 17.7983 13.9749 17.8026 14.2028C17.8037 14.2775 17.7834 14.301 17.7049 14.301C16.3434 14.2988 14.9819 14.2988 13.6204 14.301C13.5302 14.301 13.5051 14.2684 13.5072 14.1825C13.5131 13.9637 13.5072 13.7443 13.5147 13.526C13.5179 13.4412 13.4896 13.4171 13.4085 13.4182C13.1849 13.4219 12.9607 13.4161 12.7365 13.4209C12.6559 13.4225 12.6287 13.4027 12.6314 13.3168C12.6383 13.1247 12.6271 12.9325 12.6335 12.7404C12.6367 12.6427 12.6106 12.6059 12.507 12.6107C12.3149 12.6192 12.1217 12.6107 11.9296 12.6144C11.8559 12.616 11.8276 12.5963 11.8292 12.5173C11.8335 12.3209 11.818 12.1234 11.8319 11.9275C11.841 11.8005 11.7748 11.7599 11.6792 11.7578C11.375 11.7514 11.0703 11.7573 10.7655 11.7557C10.6801 11.7551 10.6881 11.8138 10.6887 11.8662C10.6903 12.0759 10.6903 12.2862 10.6999 12.4959C10.7041 12.5909 10.6737 12.6176 10.5798 12.615C10.3695 12.608 10.1587 12.6155 9.94839 12.6107C9.86513 12.6086 9.84111 12.6379 9.84325 12.719C9.84859 12.9202 9.84165 13.1215 9.84645 13.3221C9.84805 13.3974 9.82617 13.423 9.74878 13.4209C9.53849 13.4155 9.32768 13.4235 9.11739 13.4161C9.01759 13.4123 8.97969 13.4374 8.9941 13.5426C9.01919 13.7288 9.01278 13.9172 9.01011 14.1051C9.00744 14.2994 9.00691 14.2999 8.80463 14.3004C8.58954 14.301 8.37445 14.3004 8.1599 14.3004C7.04496 14.3004 5.92949 14.2972 4.81455 14.3031C4.68058 14.3036 4.64749 14.2631 4.65336 14.1377C4.66297 13.9413 4.64963 13.7443 4.65923 13.5479C4.66457 13.4353 4.62081 13.4134 4.51993 13.4166C4.31392 13.4235 4.1079 13.4145 3.90189 13.4203C3.81863 13.4225 3.79408 13.3969 3.79621 13.3147C3.80155 13.1225 3.79247 12.9304 3.79995 12.7383C3.80368 12.6406 3.7802 12.6054 3.67559 12.6096C3.47011 12.6182 3.26356 12.6086 3.05754 12.6134C2.98069 12.615 2.9588 12.5899 2.96041 12.5146C2.96521 12.3049 2.95827 12.0946 2.96361 11.8848C2.96628 11.7845 2.92785 11.7514 2.83018 11.7541C2.63324 11.7589 2.43576 11.7514 2.23935 11.7573C2.15289 11.7599 2.12514 11.7365 2.12567 11.6468C2.12994 11.1552 2.13101 10.6637 2.12407 10.1721C2.12247 10.0595 2.16356 10.043 2.2639 10.043C5.26447 10.0456 8.26504 10.0451 11.2656 10.0451C11.2661 10.0451 11.2661 10.0446 11.2661 10.044ZM6.37674 12.6123C6.66975 12.6107 6.96277 12.6267 7.25524 12.6038C7.22269 12.6272 7.21682 12.6598 7.21735 12.6982C7.22109 12.9122 7.22749 13.1268 7.22375 13.3408C7.22269 13.4241 7.26538 13.423 7.32356 13.4225C7.54719 13.4214 7.77082 13.4182 7.99445 13.4246C8.08198 13.4273 8.09852 13.3942 8.09692 13.3157C8.09265 13.1241 8.09158 12.9315 8.10012 12.7399C8.10439 12.6416 8.07984 12.6086 7.97576 12.6112C7.73506 12.6171 7.49328 12.6086 7.25258 12.6054C7.21682 12.5728 7.23389 12.5301 7.23336 12.4917C7.23069 12.2958 7.22696 12.0994 7.22963 11.9035C7.23069 11.8133 7.20828 11.7621 7.10527 11.7631C6.89552 11.7658 6.68577 11.7631 6.47602 11.7605C6.39969 11.7594 6.37621 11.7946 6.37674 11.8667C6.37994 12.1159 6.37941 12.3657 6.37994 12.6155C6.10188 12.6139 5.82434 12.6128 5.54628 12.6112C5.54254 12.3214 5.53827 12.0311 5.53453 11.7418C5.55428 11.7514 5.57403 11.769 5.59378 11.7696C5.83128 11.7738 6.06825 11.7754 6.30576 11.777C6.37514 11.7776 6.38048 11.7333 6.37994 11.6778C6.37728 11.4365 6.37514 11.1947 6.37888 10.9535C6.38048 10.874 6.35966 10.8414 6.2748 10.8435C6.06452 10.8478 5.8537 10.8484 5.64341 10.8425C5.55428 10.8398 5.54201 10.8793 5.54254 10.9546C5.54361 11.2182 5.5388 11.4813 5.53667 11.745C5.50518 11.7712 5.46835 11.7573 5.43366 11.7578C5.19669 11.7599 4.96025 11.7626 4.72328 11.7605C4.6603 11.7599 4.63415 11.777 4.63415 11.8421C4.63468 12.0738 4.63308 12.3059 4.62935 12.5376C4.62828 12.5936 4.64589 12.6166 4.70567 12.6155C4.98694 12.6107 5.26821 12.6096 5.54894 12.6075C5.54734 12.8525 5.54681 13.0974 5.54254 13.3419C5.54147 13.4081 5.56762 13.4246 5.62954 13.4235C5.84836 13.4203 6.06719 13.4203 6.28548 13.423C6.35219 13.4241 6.38048 13.4065 6.37888 13.3328C6.37568 13.0932 6.37728 12.8525 6.37674 12.6123ZM14.3889 12.6123C14.3884 12.8439 14.3911 13.0761 14.3852 13.3077C14.3831 13.3905 14.4087 13.4166 14.4903 13.415C14.6868 13.4102 14.8837 13.4097 15.0801 13.415C15.1559 13.4171 15.1687 13.3857 15.1676 13.3205C15.1639 13.0841 15.165 12.8482 15.1639 12.6118C15.4799 12.6112 15.7953 12.6102 16.1112 12.6096C16.1091 12.8503 16.1091 13.091 16.1043 13.3312C16.1032 13.3969 16.1278 13.4155 16.1908 13.415C16.4096 13.4123 16.6284 13.4097 16.8472 13.4155C16.9305 13.4177 16.9433 13.383 16.9423 13.3131C16.939 13.1124 16.938 12.9117 16.9428 12.7116C16.9444 12.6347 16.9198 12.6128 16.844 12.6139C16.5985 12.6182 16.3525 12.615 16.107 12.615C16.1064 12.362 16.1032 12.109 16.1059 11.856C16.1064 11.7808 16.0803 11.7546 16.005 11.7557C15.7248 11.7594 15.4446 11.7589 15.1644 11.7599C15.1655 11.4883 15.1644 11.2161 15.1698 10.9444C15.1714 10.8686 15.1463 10.843 15.071 10.8441C14.8746 10.8478 14.6782 10.8489 14.4818 10.843C14.4007 10.8403 14.3847 10.8734 14.3857 10.9444C14.3895 11.2161 14.3895 11.4877 14.3905 11.7594C14.1039 11.7578 13.8168 11.7562 13.5302 11.7546C13.5286 11.4867 13.5259 11.2188 13.527 10.9508C13.5275 10.882 13.5147 10.8419 13.4325 10.8435C13.1998 10.8473 12.9671 10.8462 12.7344 10.8441C12.665 10.8435 12.6399 10.8692 12.641 10.9385C12.6442 11.1841 12.6447 11.4301 12.6421 11.6756C12.6415 11.7418 12.6672 11.7594 12.7291 11.7583C12.9975 11.7541 13.266 11.753 13.5339 11.7514C13.5035 12.0081 13.5393 12.267 13.519 12.5232C13.512 12.6123 13.5467 12.6171 13.615 12.6166C13.8723 12.6123 14.1306 12.6134 14.3889 12.6123ZM3.79674 11.3122C3.79728 11.3122 3.79728 11.3122 3.79781 11.3122C3.79781 11.437 3.80048 11.5614 3.79674 11.6863C3.79461 11.7541 3.81436 11.7797 3.88748 11.7776C4.1015 11.7722 4.31605 11.7722 4.53007 11.7754C4.60266 11.7765 4.63468 11.7562 4.63415 11.6778C4.63148 11.4376 4.63255 11.1969 4.63682 10.9562C4.63842 10.8777 4.6144 10.8441 4.53114 10.8451C4.31712 10.8484 4.10257 10.8462 3.88854 10.8425C3.81756 10.8414 3.79461 10.8697 3.79621 10.9375C3.79941 11.0629 3.79674 11.1873 3.79674 11.3122Z" fill="black"/>
<path d="M15.1692 12.6169C14.9083 12.6169 14.6467 12.6164 14.3857 12.6164C14.3857 12.3293 14.3857 12.0416 14.3857 11.7544C14.6467 11.7544 14.9083 11.7544 15.1692 11.7539C15.1692 12.0416 15.1692 12.3293 15.1692 12.6169Z" fill="black"/>
<path d="M11.7221 21.2256C11.7221 21.2896 11.7216 21.3537 11.7226 21.4172C11.7226 21.4321 11.7189 21.4359 11.7039 21.4343C11.6831 21.4321 11.6612 21.4343 11.6399 21.4332C11.626 21.4327 11.6186 21.4385 11.6186 21.4524C11.618 21.4754 11.6159 21.4988 11.6228 21.5213C11.6244 21.5266 11.625 21.5351 11.6303 21.5351C11.6602 21.5367 11.6522 21.5592 11.6511 21.5752C11.6495 21.6008 11.6612 21.6072 11.6842 21.6067C11.7306 21.6056 11.7771 21.6066 11.823 21.6056C11.8406 21.605 11.8497 21.6093 11.847 21.6285C11.8432 21.651 11.8539 21.66 11.8753 21.6568C11.8982 21.6531 11.903 21.6632 11.9025 21.6846C11.9009 21.7353 11.9014 21.7865 11.9025 21.8372C11.903 21.8532 11.8977 21.858 11.8822 21.8575C11.8518 21.8564 11.8208 21.8564 11.7904 21.857C11.7739 21.8575 11.7675 21.8554 11.7723 21.8351C11.7808 21.8009 11.7744 21.7956 11.7386 21.7951C11.7162 21.7951 11.6943 21.7951 11.6719 21.7945C11.6575 21.794 11.6516 21.7993 11.6522 21.8137C11.6527 21.8399 11.6522 21.8655 11.6527 21.8917C11.6527 21.9066 11.6586 21.9135 11.6757 21.9157C11.721 21.921 11.7664 21.9157 11.8118 21.9146C11.8272 21.9141 11.8304 21.9162 11.8304 21.9306C11.8315 21.9712 11.8363 21.9749 11.8795 21.9696C11.8961 21.9674 11.9025 21.9712 11.9025 21.9899C11.902 22.0817 11.902 22.1735 11.903 22.2653C11.903 22.2818 11.8972 22.2871 11.8822 22.285C11.8795 22.2845 11.8769 22.285 11.8737 22.285C11.8288 22.285 11.8272 22.2855 11.831 22.3288C11.8326 22.348 11.8267 22.3528 11.8086 22.3523C11.7648 22.3512 11.7216 22.3517 11.6778 22.3512C11.6628 22.3507 11.6564 22.3571 11.6543 22.3715C11.6506 22.3976 11.6516 22.4232 11.6522 22.4494C11.6527 22.4654 11.6506 22.4718 11.6308 22.4707C11.5855 22.4686 11.5401 22.4691 11.4947 22.4707C11.4744 22.4713 11.4659 22.4654 11.4702 22.4457C11.4744 22.4243 11.467 22.403 11.4696 22.3821C11.4734 22.356 11.4611 22.3507 11.4382 22.3517C11.4019 22.3533 11.3656 22.3507 11.3298 22.3528C11.3042 22.3544 11.294 22.348 11.2956 22.3197C11.2983 22.2743 11.2967 22.229 11.2956 22.1836C11.2951 22.1681 11.2994 22.1628 11.3154 22.1633C11.3581 22.1644 11.4008 22.1633 11.4435 22.1639C11.4622 22.1644 11.4728 22.1585 11.4691 22.1388C11.4659 22.1212 11.4819 22.0923 11.4446 22.0918C11.4029 22.0918 11.3613 22.0907 11.3197 22.0918C11.3026 22.0923 11.2946 22.0886 11.2962 22.0694C11.2983 22.048 11.293 22.0336 11.2652 22.0406C11.2439 22.0459 11.2337 22.0395 11.2343 22.0123C11.2364 21.9242 11.2353 21.8362 11.2348 21.7481C11.2348 21.7315 11.2364 21.723 11.2567 21.7235C11.2951 21.7246 11.2967 21.723 11.2951 21.6835C11.2941 21.6627 11.2989 21.6547 11.3207 21.6579C11.3426 21.6611 11.3544 21.6504 11.3517 21.6275C11.3496 21.6088 11.3586 21.6061 11.3741 21.6072C11.3971 21.6083 11.4205 21.6067 11.4435 21.6072C11.4627 21.6077 11.4707 21.5997 11.4691 21.581C11.467 21.557 11.4664 21.5341 11.5027 21.5399C11.5113 21.5415 11.5182 21.5346 11.5187 21.5245C11.5187 21.5229 11.5187 21.5207 11.5187 21.5191C11.515 21.4161 11.5401 21.4369 11.4387 21.4364C11.4168 21.4364 11.4131 21.4311 11.4136 21.4113C11.4141 21.2918 11.4131 21.1722 11.4141 21.0526C11.4141 21.0302 11.4093 21.0222 11.3853 21.0228C11.3351 21.0249 11.285 21.0228 11.2353 21.0238C11.2188 21.0244 11.2119 21.0201 11.2129 21.0019C11.2145 20.9827 11.2119 20.963 11.2135 20.9438C11.2156 20.9219 11.2065 20.916 11.1862 20.9176C11.1713 20.9187 11.1564 20.916 11.1419 20.9182C11.1158 20.9224 11.1115 20.9107 11.1126 20.8872C11.1137 20.837 11.1105 20.7874 11.1115 20.7372C11.1121 20.7148 11.1024 20.7105 11.0832 20.7121C11.0678 20.7132 11.0517 20.7111 11.0363 20.7127C11.0117 20.7153 11.0053 20.7047 11.0074 20.6822C11.009 20.6673 11.0064 20.6524 11.008 20.638C11.0117 20.6107 10.9989 20.6038 10.9749 20.6059C10.9583 20.6075 10.9418 20.6059 10.9247 20.6059C10.906 20.6059 10.8996 20.5969 10.9039 20.5792C10.9044 20.5776 10.905 20.5755 10.9055 20.5739C10.9156 20.5157 10.9012 20.4997 10.8436 20.5035C10.8078 20.5056 10.8078 20.5056 10.8073 20.4704C10.8073 20.401 10.8073 20.401 10.7384 20.4004C10.699 20.3999 10.7016 20.4069 10.7016 20.3631C10.7016 20.2804 10.7011 20.1982 10.7022 20.1154C10.7022 20.0957 10.6984 20.0861 10.6765 20.0888C10.6584 20.0904 10.6397 20.0877 10.621 20.0888C10.6061 20.0898 10.6007 20.0845 10.6018 20.0701C10.6029 20.0477 10.6018 20.0258 10.6023 20.0034C10.6029 19.9889 10.597 19.9831 10.5826 19.9831C10.5613 19.9836 10.5399 19.9825 10.5186 19.9831C10.5015 19.9836 10.4951 19.9761 10.4961 19.9596C10.4972 19.9468 10.4961 19.9334 10.4961 19.9206C10.4956 19.8827 10.4828 19.8726 10.4438 19.8801C10.4342 19.8817 10.4257 19.8822 10.4166 19.8806C10.4027 19.8779 10.3974 19.8742 10.3979 19.8555C10.4001 19.7664 10.3979 19.6778 10.3979 19.5887C10.3979 19.5758 10.3931 19.5721 10.3809 19.5694C10.3611 19.5652 10.3419 19.5684 10.3232 19.5705C10.3035 19.5732 10.2939 19.5684 10.296 19.546C10.2981 19.5257 10.2955 19.5054 10.2965 19.4846C10.2971 19.4702 10.2917 19.4643 10.2773 19.4648C10.2549 19.4654 10.233 19.4643 10.2106 19.4648C10.1962 19.4654 10.1903 19.4606 10.1909 19.4456C10.1919 19.4269 10.1909 19.4088 10.1909 19.3901C10.1914 19.3682 10.1812 19.3576 10.1588 19.3586C10.145 19.3592 10.1305 19.3565 10.1172 19.3597C10.0905 19.3661 10.09 19.3528 10.09 19.3319C10.091 19.2476 10.0894 19.1633 10.091 19.079C10.0916 19.0544 10.0825 19.048 10.0606 19.0501C10.0425 19.0517 10.0238 19.0501 10.0057 19.0517C9.99177 19.0533 9.99017 19.0475 9.99017 19.0363C9.99071 19.0149 9.98964 18.9936 9.99071 18.9722C9.99178 18.953 9.9859 18.9471 9.96616 18.9466C9.91492 18.945 9.86422 18.9445 9.81351 18.9482C9.7927 18.9498 9.78416 18.9445 9.78469 18.921C9.78576 18.7988 9.78576 18.6765 9.78523 18.5538C9.78523 18.5308 9.79003 18.526 9.81565 18.5276C9.87382 18.5319 9.932 18.5287 9.99071 18.5287C10.0169 18.5287 10.0425 18.5308 10.0686 18.5292C10.0884 18.5276 10.0916 18.5351 10.0916 18.5527C10.091 18.6712 10.0926 18.7902 10.0905 18.9087C10.09 18.9397 10.1017 18.9461 10.1284 18.9466C10.1492 18.9471 10.1764 18.9365 10.1898 18.9503C10.2037 18.9642 10.1909 18.9904 10.1914 19.0112C10.1925 19.0485 10.1919 19.0485 10.2303 19.0485C10.2965 19.0485 10.2971 19.0485 10.296 19.1147C10.2955 19.1387 10.2987 19.1542 10.328 19.1505C10.3376 19.1494 10.3483 19.1521 10.3579 19.1542C10.3712 19.1569 10.3883 19.1419 10.3969 19.1547C10.4033 19.1644 10.3995 19.1814 10.3995 19.1953C10.3995 19.2738 10.4001 19.3528 10.3995 19.4312C10.3995 19.4648 10.4011 19.4675 10.4326 19.4622C10.4524 19.459 10.4711 19.4648 10.4908 19.4664C10.5031 19.4675 10.502 19.476 10.502 19.4846C10.5015 19.5059 10.5015 19.5273 10.5015 19.5486C10.5015 19.5625 10.5073 19.5684 10.5218 19.5673C10.5372 19.5662 10.5532 19.5678 10.5687 19.5662C10.5949 19.563 10.6072 19.571 10.6029 19.5988C10.6013 19.6095 10.6039 19.6212 10.6023 19.6319C10.597 19.6623 10.6125 19.6714 10.6392 19.6708C10.644 19.6708 10.6482 19.6708 10.6531 19.6708C10.7027 19.6687 10.7027 19.6687 10.7027 19.7205C10.7027 19.7984 10.7032 19.8763 10.7022 19.9543C10.7016 19.974 10.7102 19.9815 10.7272 19.982C10.7475 19.9825 10.7683 19.9841 10.7881 19.9799C10.8073 19.9761 10.8084 19.9841 10.8084 19.998C10.8084 20.0194 10.8089 20.0407 10.8084 20.0621C10.8078 20.0786 10.8164 20.0861 10.8313 20.0866C10.8505 20.0877 10.8703 20.0893 10.8895 20.0866C10.9066 20.084 10.9087 20.0904 10.9092 20.1037C10.9098 20.125 10.9114 20.1464 10.9114 20.1677C10.9114 20.1843 10.9188 20.1907 10.9354 20.1896C10.9546 20.1886 10.9744 20.1891 10.9936 20.1891C11.0064 20.1891 11.0122 20.1918 11.0122 20.2083C11.0106 20.2953 11.0117 20.3823 11.0112 20.4693C11.0112 20.4933 11.0203 20.5008 11.0443 20.5008C11.1147 20.5003 11.1163 20.5013 11.1147 20.5707C11.1142 20.5995 11.1238 20.6075 11.151 20.6065C11.199 20.6043 11.2476 20.607 11.2956 20.6054C11.3159 20.6049 11.3261 20.6086 11.3186 20.631C11.3165 20.6369 11.317 20.6438 11.3175 20.6502C11.3223 20.7057 11.3223 20.7057 11.3789 20.7068C11.3816 20.7068 11.3842 20.7073 11.3875 20.7073C11.4131 20.7068 11.4243 20.7121 11.4227 20.7447C11.4184 20.8221 11.42 20.9 11.4211 20.9779C11.4216 21.0164 11.4253 21.0185 11.4627 21.0185C11.5396 21.019 11.6164 21.0196 11.6933 21.0206C11.7125 21.0212 11.7237 21.0196 11.7232 20.9939C11.721 20.9096 11.728 20.8253 11.7221 20.7415C11.7205 20.7169 11.7264 20.7052 11.753 20.7073C11.7685 20.7084 11.7845 20.7063 11.8 20.7068C11.8192 20.7079 11.8272 20.6983 11.8278 20.6806C11.8283 20.663 11.8294 20.6454 11.8272 20.6278C11.8251 20.6081 11.8336 20.6049 11.8507 20.6054C11.9014 20.6065 11.9527 20.6049 12.0034 20.6059C12.0268 20.6065 12.0359 20.5979 12.0332 20.575C12.0316 20.5632 12.0332 20.551 12.0332 20.5387C12.0343 20.4997 12.0343 20.4997 12.0743 20.4997C12.1336 20.4992 12.1336 20.5093 12.1336 20.4421C12.1331 20.3642 12.1331 20.2862 12.1309 20.2088C12.1304 20.1918 12.1368 20.1896 12.1491 20.1896C12.1704 20.1896 12.1918 20.188 12.2131 20.1902C12.2318 20.1918 12.235 20.1843 12.2345 20.1683C12.2334 20.1459 12.2339 20.124 12.2339 20.1016C12.2339 20.0893 12.2366 20.0823 12.2521 20.0861C12.2665 20.0893 12.282 20.0861 12.2964 20.0888C12.3263 20.0946 12.3391 20.0733 12.3396 20.0461C12.3401 20.0284 12.3401 20.0108 12.3396 19.9932C12.3396 19.982 12.3417 19.9745 12.3551 19.9809C12.3562 19.9815 12.3567 19.9815 12.3578 19.982C12.4303 19.9932 12.4394 19.9857 12.4399 19.9126C12.4399 19.8395 12.4405 19.7664 12.4394 19.6927C12.4394 19.673 12.441 19.6607 12.465 19.6703C12.4661 19.6709 12.4666 19.6708 12.4677 19.6708C12.5307 19.6789 12.5414 19.6698 12.5408 19.6079C12.5403 19.5625 12.5365 19.5673 12.5803 19.5673C12.5867 19.5673 12.5931 19.5673 12.5995 19.5673C12.6428 19.5684 12.6428 19.5684 12.6428 19.5235C12.6428 19.5219 12.6422 19.5198 12.6422 19.5182C12.6422 19.5017 12.6326 19.4776 12.6444 19.4712C12.6604 19.4622 12.6828 19.4606 12.7036 19.4632C12.7452 19.4696 12.7452 19.4691 12.7452 19.428C12.7452 19.3437 12.7458 19.2594 12.7447 19.175C12.7447 19.1553 12.7484 19.1478 12.7698 19.1542C12.7917 19.1611 12.8135 19.1494 12.8354 19.1499C12.8456 19.1505 12.845 19.1409 12.845 19.1334C12.845 19.1142 12.8461 19.0944 12.8445 19.0752C12.8434 19.0576 12.8493 19.0496 12.868 19.0507C12.8883 19.0517 12.9086 19.0501 12.9294 19.0507C12.9454 19.0512 12.9512 19.0437 12.9507 19.0293C12.9502 19.009 12.9512 18.9882 12.9491 18.9685C12.947 18.9487 12.9555 18.9439 12.9731 18.9461C12.9907 18.9482 13.0078 18.9482 13.0254 18.9477C13.0462 18.9471 13.0516 18.9397 13.0516 18.9199C13.0505 18.802 13.0516 18.6845 13.0505 18.5666C13.0505 18.542 13.0516 18.5303 13.0836 18.5319C13.1685 18.5351 13.2539 18.5324 13.3393 18.5308C13.3547 18.5303 13.3563 18.5372 13.3563 18.549C13.3563 18.5794 13.3569 18.6104 13.3569 18.6408C13.3569 18.7342 13.3558 18.8281 13.3574 18.9215C13.3579 18.9471 13.3494 18.9535 13.3259 18.9514C13.2768 18.9471 13.2277 18.9487 13.1786 18.9498C13.1557 18.9503 13.1498 18.9583 13.1514 18.9792C13.153 18.9984 13.1514 19.0181 13.1525 19.0373C13.153 19.0517 13.1493 19.0581 13.1338 19.0544C13.1279 19.0528 13.121 19.0549 13.1146 19.0549C13.0516 19.0549 13.0516 19.0549 13.0516 19.1169C13.0516 19.1926 13.0511 19.269 13.0516 19.3447C13.0516 19.3618 13.05 19.3704 13.0286 19.3634C13.0132 19.3586 12.9955 19.3602 12.979 19.3613C12.9614 19.3624 12.9496 19.3704 12.9507 19.3912C12.9518 19.4099 12.9502 19.4285 12.9512 19.4467C12.9528 19.4643 12.9454 19.4691 12.9288 19.4686C12.9075 19.4675 12.8861 19.4686 12.8648 19.468C12.8504 19.4675 12.8445 19.4734 12.845 19.4878C12.8456 19.5091 12.844 19.5305 12.8456 19.5518C12.8472 19.5716 12.8392 19.5758 12.8216 19.5742C12.805 19.5726 12.7879 19.5742 12.7714 19.5726C12.7511 19.5705 12.7436 19.578 12.7442 19.5993C12.7452 19.6837 12.7447 19.768 12.7447 19.8523C12.7447 19.8806 12.7351 19.8913 12.7073 19.8833C12.6881 19.8779 12.671 19.8875 12.6529 19.8833C12.6417 19.8806 12.6444 19.8929 12.6444 19.8993C12.6438 19.9217 12.6438 19.9436 12.6444 19.966C12.6449 19.9804 12.6396 19.9863 12.6251 19.9857C12.6049 19.9847 12.5846 19.9863 12.5638 19.9852C12.5478 19.9847 12.5397 19.9884 12.5414 20.0071C12.5435 20.0284 12.5419 20.0498 12.5424 20.0706C12.543 20.0861 12.536 20.092 12.5205 20.0914C12.5019 20.0909 12.4832 20.093 12.465 20.0909C12.4421 20.0882 12.4373 20.0984 12.4378 20.1192C12.4389 20.2051 12.4373 20.2916 12.4383 20.3775C12.4383 20.3967 12.4335 20.4031 12.4138 20.4031C12.3892 20.4026 12.3567 20.3914 12.3423 20.409C12.3305 20.4239 12.3369 20.4549 12.338 20.4789C12.3391 20.5019 12.3327 20.5077 12.3081 20.5077C12.2222 20.5072 12.2318 20.4874 12.2323 20.5782C12.2323 20.6033 12.2259 20.6091 12.2019 20.6081C12.1315 20.6065 12.1299 20.6075 12.132 20.6785C12.1331 20.7057 12.1272 20.7153 12.0978 20.7143C12.0316 20.7116 12.0316 20.7137 12.0316 20.7794C12.0316 20.8194 12.0311 20.8589 12.0322 20.8989C12.0327 20.9149 12.0274 20.9192 12.0114 20.9192C11.9841 20.9192 11.9489 20.9075 11.9313 20.9256C11.9148 20.9427 11.926 20.9769 11.9265 21.0035C11.927 21.0217 11.9206 21.0249 11.9041 21.0249C11.8513 21.0238 11.7984 21.0254 11.7456 21.0244C11.7269 21.0238 11.7237 21.0286 11.7242 21.0478C11.7264 21.1082 11.7253 21.1685 11.7253 21.2288C11.7226 21.2256 11.7221 21.2256 11.7221 21.2256ZM13.2528 18.739C13.2528 18.7278 13.2528 18.7166 13.2528 18.7059C13.2512 18.6237 13.2699 18.6322 13.1711 18.6312C13.1535 18.6312 13.1461 18.6381 13.1466 18.6563C13.1471 18.692 13.1466 18.7283 13.1466 18.7646C13.1466 18.8441 13.1466 18.8441 13.2261 18.8425C13.2272 18.8425 13.2277 18.8425 13.2288 18.8425C13.2448 18.8436 13.2528 18.8361 13.2523 18.8196C13.2528 18.7929 13.2528 18.7657 13.2528 18.739ZM12.3353 20.2964C12.3353 20.2862 12.3353 20.2761 12.3353 20.2659C12.3353 20.1848 12.3353 20.1854 12.2537 20.1928C12.2339 20.1944 12.2286 20.203 12.2291 20.2211C12.2302 20.259 12.2297 20.2969 12.2297 20.3348C12.2291 20.4047 12.2329 20.4068 12.3028 20.3994C12.3295 20.3967 12.3391 20.3876 12.3359 20.3604C12.3332 20.3391 12.3353 20.3177 12.3353 20.2964ZM12.947 19.2615C12.9464 19.2615 12.9454 19.2615 12.9448 19.2615C12.9448 19.2503 12.9448 19.2391 12.9448 19.2284C12.9448 19.1483 12.9448 19.1483 12.8637 19.1537C12.8488 19.1547 12.8413 19.1595 12.8413 19.1745C12.8413 19.2311 12.8413 19.2876 12.8418 19.3442C12.8418 19.357 12.8477 19.3666 12.8621 19.3629C12.884 19.357 12.9064 19.3602 12.9283 19.3608C12.9438 19.3608 12.9475 19.3565 12.947 19.3421C12.9464 19.3154 12.947 19.2887 12.947 19.2615ZM10.1898 19.2583C10.1893 19.2583 10.1892 19.2583 10.1887 19.2583C10.1887 19.2839 10.1892 19.3101 10.1887 19.3357C10.1882 19.3528 10.1892 19.364 10.2122 19.3602C10.2303 19.3576 10.2501 19.3565 10.2672 19.3608C10.2933 19.3677 10.2955 19.356 10.2949 19.3357C10.2944 19.3005 10.2955 19.2652 10.2944 19.23C10.2928 19.1377 10.3093 19.1553 10.2111 19.1531C10.1957 19.1526 10.1898 19.1595 10.1898 19.1745C10.1903 19.2028 10.1898 19.2305 10.1898 19.2583ZM10.6002 19.7701C10.6002 19.744 10.6002 19.7184 10.6002 19.6922C10.6007 19.6751 10.5991 19.6634 10.5757 19.6693C10.5591 19.6735 10.5399 19.6741 10.5234 19.6698C10.4999 19.6634 10.4983 19.6773 10.4961 19.6922C10.4908 19.729 10.4967 19.7659 10.4956 19.8032C10.4929 19.8774 10.4935 19.8774 10.5666 19.8785C10.5682 19.8785 10.5703 19.8785 10.5719 19.8785C10.5906 19.8785 10.6013 19.8715 10.6002 19.8502C10.5991 19.824 10.6002 19.7973 10.6002 19.7701ZM9.98857 18.7374C9.98857 18.7262 9.98857 18.715 9.98857 18.7043C9.98857 18.6301 9.98857 18.6301 9.91332 18.6317C9.91065 18.6317 9.90798 18.6317 9.90478 18.6317C9.89357 18.6312 9.8877 18.6365 9.8877 18.6482C9.8877 18.7075 9.8877 18.7667 9.8877 18.826C9.8877 18.8372 9.89143 18.8431 9.90424 18.8431C9.92292 18.8425 9.94107 18.8436 9.95975 18.8431C9.97897 18.8425 9.99071 18.8356 9.98857 18.8126C9.98697 18.787 9.98857 18.7619 9.98857 18.7374ZM10.8057 20.291C10.8057 20.3188 10.8057 20.3465 10.8057 20.3743C10.8057 20.385 10.8062 20.3946 10.8206 20.3956C10.8425 20.3972 10.8644 20.4004 10.8868 20.3983C10.8996 20.3967 10.9066 20.3924 10.9066 20.3775C10.906 20.3241 10.906 20.2702 10.9066 20.2168C10.9066 20.204 10.9018 20.196 10.889 20.1928C10.866 20.188 10.8431 20.1891 10.8201 20.1891C10.8078 20.1891 10.8057 20.1987 10.8062 20.2083C10.8057 20.2361 10.8057 20.2638 10.8057 20.291ZM11.6186 21.2282C11.618 21.2005 11.6175 21.1727 11.618 21.145C11.6186 21.1284 11.6132 21.121 11.5961 21.122C11.578 21.1231 11.5593 21.1231 11.5406 21.122C11.5219 21.1204 11.5166 21.1284 11.5166 21.1461C11.5177 21.1957 11.5187 21.2459 11.5161 21.2955C11.5145 21.3254 11.5252 21.3329 11.5524 21.3291C11.5678 21.327 11.5839 21.328 11.5993 21.3296C11.6148 21.3313 11.6186 21.3248 11.618 21.311C11.618 21.2838 11.6186 21.256 11.6186 21.2282ZM11.3127 20.8141H11.3122C11.3122 20.7863 11.3117 20.7586 11.3127 20.7308C11.3133 20.7164 11.3095 20.7105 11.2946 20.7111C11.2743 20.7116 11.254 20.7116 11.2337 20.7111C11.2188 20.7105 11.2119 20.7148 11.2124 20.7314C11.2129 20.7869 11.2129 20.8424 11.2124 20.8979C11.2124 20.9085 11.2145 20.9166 11.2273 20.9166C11.2503 20.9166 11.2738 20.9171 11.2967 20.9155C11.3095 20.9144 11.317 20.9091 11.3149 20.8915C11.3106 20.8659 11.3127 20.8397 11.3127 20.8141ZM11.9238 20.8135C11.9238 20.8045 11.9238 20.7949 11.9238 20.7858C11.9238 20.7047 11.9238 20.7052 11.8427 20.7105C11.8283 20.7116 11.8235 20.7164 11.8235 20.7303C11.824 20.7847 11.824 20.8397 11.8235 20.8941C11.8235 20.9166 11.84 20.9171 11.8545 20.916C11.8779 20.9139 11.9062 20.9267 11.9233 20.8995C11.926 20.8952 11.9238 20.8888 11.9238 20.8829C11.9238 20.86 11.9238 20.8365 11.9238 20.8135ZM12.5403 19.7723C12.5403 19.7835 12.5403 19.7947 12.5403 19.8053C12.5403 19.8827 12.5403 19.8822 12.6177 19.8774C12.6321 19.8763 12.639 19.871 12.639 19.8582C12.639 19.8021 12.639 19.7456 12.6385 19.6895C12.6385 19.6757 12.6315 19.6703 12.6177 19.6714C12.5974 19.6725 12.5766 19.6735 12.5568 19.6703C12.5408 19.6677 12.5403 19.6746 12.5403 19.6863C12.5408 19.7146 12.5403 19.7434 12.5403 19.7723ZM11.3789 22.0347C11.3901 22.0352 11.4013 22.0347 11.412 22.0352C11.4237 22.0352 11.436 22.0358 11.4478 22.0352C11.4558 22.0347 11.4638 22.0352 11.4675 22.024C11.4776 21.9915 11.467 21.9749 11.4333 21.9738C11.4195 21.9733 11.4056 21.9733 11.3917 21.9733C11.349 21.9733 11.349 21.9733 11.3506 21.9306C11.3506 21.9296 11.3506 21.9285 11.3506 21.928C11.3549 21.9146 11.3549 21.9039 11.3362 21.9066C11.3207 21.9093 11.2957 21.8949 11.2946 21.9269C11.294 21.9562 11.2951 21.9861 11.2946 22.0155C11.2946 22.0304 11.3015 22.0347 11.3149 22.0342C11.3367 22.0342 11.3581 22.0347 11.3789 22.0347ZM11.713 22.1628C11.7696 22.1628 11.7755 22.158 11.7733 22.1153C11.7723 22.0987 11.7659 22.0897 11.7477 22.0902C11.7248 22.0907 11.7013 22.0913 11.6783 22.0902C11.6586 22.0891 11.6532 22.0982 11.6516 22.1158C11.6484 22.1574 11.6527 22.1623 11.6938 22.1628C11.7002 22.1628 11.7066 22.1628 11.713 22.1628ZM11.412 21.8527H11.4125C11.4125 21.8676 11.4136 21.8826 11.412 21.897C11.4104 21.913 11.4173 21.9194 11.4323 21.9178C11.4467 21.9162 11.4664 21.9242 11.468 21.8991C11.4696 21.8714 11.4696 21.8436 11.4723 21.8159C11.4739 21.7967 11.4638 21.7919 11.4478 21.7913C11.4125 21.7897 11.4115 21.7903 11.4115 21.8249C11.412 21.834 11.412 21.8431 11.412 21.8527ZM11.713 21.6611C11.713 21.6616 11.713 21.6616 11.713 21.6611C11.7002 21.6616 11.6874 21.6622 11.6746 21.6611C11.6564 21.66 11.6532 21.6718 11.6516 21.6856C11.6506 21.6995 11.6559 21.7081 11.6714 21.7097C11.697 21.7118 11.7226 21.7123 11.7482 21.7097C11.7643 21.7081 11.7733 21.7038 11.7723 21.6846C11.7712 21.6664 11.7627 21.6606 11.7461 21.6611C11.7349 21.6616 11.7242 21.6611 11.713 21.6611Z" fill="#FFAB0B"/>
</g>
<defs>
<clipPath id="clip0_8_252">
<rect width="24" height="24" rx="12" fill="white"/>
</clipPath>
</defs>
</svg>
